<svg width="32" height="48" xmlns="http://www.w3.org/2000/svg">
 <!-- Created with Method Draw - http://github.com/duopixel/Method-Draw/ -->

 <g>
  <title>background</title>
  <rect fill="none" id="canvas_background" height="50" width="34" y="-1" x="-1"/>
  <g display="none" overflow="visible" y="0" x="0" height="100%" width="100%" id="canvasGrid">
   <rect fill="url(#gridpattern)" stroke-width="0" y="0" x="0" height="100%" width="100%"/>
  </g>
 </g>
 <g>
  <title>Layer 1</title>
  <g stroke="null" id="svg_21">
   <path stroke="null" fill="#fbcf3a" id="svg_5" d="m28.270223,32.799882c-0.053774,-0.164969 -0.196413,-0.285277 -0.368217,-0.310342l-8.243874,-1.198073l-3.68673,-7.470071c-0.07656,-0.155854 -0.235149,-0.254289 -0.40832,-0.254289s-0.332216,0.098434 -0.40832,0.254289l-3.687185,7.470527l-8.243874,1.198073c-0.171804,0.025064 -0.313987,0.144917 -0.368217,0.310342c-0.053319,0.164513 -0.009114,0.345887 0.115296,0.466652l5.965758,5.814916l-1.408613,8.211063c-0.029166,0.170893 0.041014,0.343609 0.180919,0.445689c0.140816,0.102991 0.327203,0.116207 0.479867,0.034634l7.374371,-3.876307l7.373459,3.876307c0.066534,0.03509 0.139904,0.052407 0.212363,0.052407c0.094333,0 0.18821,-0.029166 0.26796,-0.087041c0.14036,-0.10208 0.21054,-0.274796 0.180919,-0.445689l-1.408158,-8.210607l5.965758,-5.815372c0.123954,-0.121676 0.168614,-0.302594 0.11484,-0.467107z"/>
   <g stroke="null" transform="matrix(0.45571442476148755,0,0,1.7147860221056261,-339.722256231119,-958.7778789986345) " id="svg_6"/>
   <g stroke="null" transform="matrix(0.45571442476148755,0,0,1.7147860221056261,-339.722256231119,-958.7778789986345) " id="svg_7"/>
   <g stroke="null" transform="matrix(0.45571442476148755,0,0,1.7147860221056261,-339.722256231119,-958.7778789986345) " id="svg_8"/>
   <g stroke="null" transform="matrix(0.45571442476148755,0,0,1.7147860221056261,-339.722256231119,-958.7778789986345) " id="svg_9"/>
   <g stroke="null" transform="matrix(0.45571442476148755,0,0,1.7147860221056261,-339.722256231119,-958.7778789986345) " id="svg_10"/>
   <g stroke="null" transform="matrix(0.45571442476148755,0,0,1.7147860221056261,-339.722256231119,-958.7778789986345) " id="svg_11"/>
   <g stroke="null" transform="matrix(0.45571442476148755,0,0,1.7147860221056261,-339.722256231119,-958.7778789986345) " id="svg_12"/>
   <g stroke="null" transform="matrix(0.45571442476148755,0,0,1.7147860221056261,-339.722256231119,-958.7778789986345) " id="svg_13"/>
   <g stroke="null" transform="matrix(0.45571442476148755,0,0,1.7147860221056261,-339.722256231119,-958.7778789986345) " id="svg_14"/>
   <g stroke="null" transform="matrix(0.45571442476148755,0,0,1.7147860221056261,-339.722256231119,-958.7778789986345) " id="svg_15"/>
   <g stroke="null" transform="matrix(0.45571442476148755,0,0,1.7147860221056261,-339.722256231119,-958.7778789986345) " id="svg_16"/>
   <g stroke="null" transform="matrix(0.45571442476148755,0,0,1.7147860221056261,-339.722256231119,-958.7778789986345) " id="svg_17"/>
   <g stroke="null" transform="matrix(0.45571442476148755,0,0,1.7147860221056261,-339.722256231119,-958.7778789986345) " id="svg_18"/>
   <g stroke="null" transform="matrix(0.45571442476148755,0,0,1.7147860221056261,-339.722256231119,-958.7778789986345) " id="svg_19"/>
   <g stroke="null" transform="matrix(0.45571442476148755,0,0,1.7147860221056261,-339.722256231119,-958.7778789986345) " id="svg_20"/>
  </g>
  <g stroke="null" id="svg_42">
   <path stroke="null" id="svg_26" d="m8.432235,23.30231c-0.088542,0 -0.177084,-0.027375 -0.251511,-0.081698c-0.131744,-0.095814 -0.197616,-0.257927 -0.169813,-0.418329l1.322143,-7.707012l-5.599539,-5.45753c-0.116345,-0.113779 -0.158264,-0.283591 -0.108218,-0.438005c0.050473,-0.154842 0.184356,-0.267765 0.345614,-0.291291l7.737809,-1.124527l3.460841,-7.011935c0.07186,-0.146287 0.220714,-0.238679 0.383255,-0.238679l0,0c0.162969,0 0.311822,0.092392 0.383255,0.238679l3.460413,7.011935l7.738237,1.124527c0.161258,0.023526 0.294713,0.136021 0.345614,0.291291c0.050046,0.154414 0.008555,0.324654 -0.108218,0.438005l-5.599539,5.458385l1.321715,7.706584c0.027375,0.160402 -0.038497,0.322516 -0.169813,0.418329c-0.131744,0.096669 -0.306689,0.109074 -0.450838,0.032508l-6.920827,-3.638353l-6.921682,3.638353c-0.06245,0.032508 -0.130888,0.048762 -0.198899,0.048762zm-3.480945,-13.672268l5.139719,5.010114c0.100519,0.097952 0.146715,0.239962 0.122761,0.37855l-1.213497,7.073957l6.353644,-3.339791c0.124472,-0.065872 0.272898,-0.065872 0.398226,0l6.352788,3.339791l-1.213069,-7.073957c-0.023953,-0.138588 0.022242,-0.280169 0.122761,-0.37855l5.139719,-5.010114l-7.102616,-1.032136c-0.139443,-0.020104 -0.259638,-0.10779 -0.322088,-0.233974l-3.176822,-6.43577l-3.176822,6.436198c-0.06245,0.126183 -0.182645,0.21387 -0.322088,0.233974l-7.102616,1.031708z"/>
   <g stroke="null" transform="matrix(0.4277395971909006,0,0,0.4277395971909006,15.424609519202981,21.4430840855976) " id="svg_27"/>
   <g stroke="null" transform="matrix(0.4277395971909006,0,0,0.4277395971909006,15.424609519202981,21.4430840855976) " id="svg_28"/>
   <g stroke="null" transform="matrix(0.4277395971909006,0,0,0.4277395971909006,15.424609519202981,21.4430840855976) " id="svg_29"/>
   <g stroke="null" transform="matrix(0.4277395971909006,0,0,0.4277395971909006,15.424609519202981,21.4430840855976) " id="svg_30"/>
   <g stroke="null" transform="matrix(0.4277395971909006,0,0,0.4277395971909006,15.424609519202981,21.4430840855976) " id="svg_31"/>
   <g stroke="null" transform="matrix(0.4277395971909006,0,0,0.4277395971909006,15.424609519202981,21.4430840855976) " id="svg_32"/>
   <g stroke="null" transform="matrix(0.4277395971909006,0,0,0.4277395971909006,15.424609519202981,21.4430840855976) " id="svg_33"/>
   <g stroke="null" transform="matrix(0.4277395971909006,0,0,0.4277395971909006,15.424609519202981,21.4430840855976) " id="svg_34"/>
   <g stroke="null" transform="matrix(0.4277395971909006,0,0,0.4277395971909006,15.424609519202981,21.4430840855976) " id="svg_35"/>
   <g stroke="null" transform="matrix(0.4277395971909006,0,0,0.4277395971909006,15.424609519202981,21.4430840855976) " id="svg_36"/>
   <g stroke="null" transform="matrix(0.4277395971909006,0,0,0.4277395971909006,15.424609519202981,21.4430840855976) " id="svg_37"/>
   <g stroke="null" transform="matrix(0.4277395971909006,0,0,0.4277395971909006,15.424609519202981,21.4430840855976) " id="svg_38"/>
   <g stroke="null" transform="matrix(0.4277395971909006,0,0,0.4277395971909006,15.424609519202981,21.4430840855976) " id="svg_39"/>
   <g stroke="null" transform="matrix(0.4277395971909006,0,0,0.4277395971909006,15.424609519202981,21.4430840855976) " id="svg_40"/>
   <g stroke="null" transform="matrix(0.4277395971909006,0,0,0.4277395971909006,15.424609519202981,21.4430840855976) " id="svg_41"/>
  </g>
 </g>
</svg>